<?xml version="1.0" encoding="UTF-8" standalone="no"?>
<!-- Generator: Adobe Illustrator 13.0.0, SVG Export Plug-In . SVG Version: 6.00 Build 14948)  -->

<svg
   xmlns:dc="http://purl.org/dc/elements/1.1/"
   xmlns:cc="http://creativecommons.org/ns#"
   xmlns:rdf="http://www.w3.org/1999/02/22-rdf-syntax-ns#"
   xmlns:svg="http://www.w3.org/2000/svg"
   xmlns="http://www.w3.org/2000/svg"
   xmlns:sodipodi="http://sodipodi.sourceforge.net/DTD/sodipodi-0.dtd"
   xmlns:inkscape="http://www.inkscape.org/namespaces/inkscape"
   version="1.1"
   id="Layer_2"
   x="0px"
   y="0px"
   width="95.943001"
   height="41.486"
   viewBox="0 0 95.943001 41.486001"
   enable-background="new 0 0 558.914 422.788"
   xml:space="preserve"
   inkscape:version="0.48.4 r9939"
   sodipodi:docname="detailed-cars-silhouettes.svg"><metadata
   id="metadata1009"><rdf:RDF><cc:Work
       rdf:about=""><dc:format>image/svg+xml</dc:format><dc:type
         rdf:resource="http://purl.org/dc/dcmitype/StillImage" /><dc:title></dc:title></cc:Work></rdf:RDF></metadata><defs
   id="defs1007" /><sodipodi:namedview
   pagecolor="#ffffff"
   bordercolor="#666666"
   borderopacity="1"
   objecttolerance="10"
   gridtolerance="10"
   guidetolerance="10"
   inkscape:pageopacity="0"
   inkscape:pageshadow="2"
   inkscape:window-width="1600"
   inkscape:window-height="837"
   id="namedview1005"
   showgrid="false"
   fit-margin-top="0"
   fit-margin-left="0"
   fit-margin-right="0"
   fit-margin-bottom="0"
   inkscape:zoom="15.008911"
   inkscape:cx="47.9715"
   inkscape:cy="20.743"
   inkscape:window-x="-8"
   inkscape:window-y="-8"
   inkscape:window-maximized="1"
   inkscape:current-layer="Layer_2" />













































<g
   id="g941"
   transform="translate(-4.6040044,0)">
	<path
   d="m 99.7,27.74 -4.406,-0.025 -1.052,-3.089 0.012,0.013 1.14,0.013 -2.405,-8.028 -1.367,-0.172 -0.371,-0.473 C 83.1,14.18 70.334,14.142 61.611,13.064 L 55.037,1.189 C 54.553,0.223 52.381,0 50.83,0 H 18.623 c -1.874,0 -4.516,0.892 -4.95,2.728 L 10.399,16.564 V 11.588 L 9.505,10.693 H 5.497 c -0.471,0 -0.893,0.397 -0.893,0.895 v 14.514 c 0,0.497 0.398,0.895 0.893,0.895 h 4.008 c 0.495,0 0.894,-0.895 0.894,-0.895 V 22.62 c 0.249,0.059 0.47,0.251 0.458,0.492 v 3.114 c -0.013,0.298 -0.235,0.546 -0.533,0.57 l 0.013,1.465 v 0.024 L 7.682,28.52 c -0.324,0.037 -0.77,0.299 -0.77,0.607 l 0.013,2.196 c 0,0.186 0.148,0.397 0.323,0.447 1.563,0.359 4.455,0.261 4.602,-0.076 0.038,-0.308 0.212,-0.817 0.597,-0.83 h 1.365 v 0.013 l 2.38,0.156 c 1.016,-3.702 4.417,-6.442 8.43,-6.442 4.406,0 8.063,3.279 8.666,7.511 l 6.564,0.4 4.604,0.05 v 1.079 l 0.494,0.013 0.262,0.596 11.761,0.05 0.995,-0.385 v -1.478 l 7.132,0.038 3.697,2.469 1.242,-0.459 4.076,-0.603 c -0.012,-0.179 -0.019,-0.357 -0.019,-0.539 0,-4.778 3.905,-8.684 8.683,-8.684 3.859,0 7.141,2.533 8.274,6.015 l 0.708,-1.164 2.246,1.228 5.745,0.013 c 0.52,0 0.781,-0.26 0.795,-0.769 V 28.533 C 100.518,28.013 100.232,27.752 99.7,27.74 z M 13.09,13.497 c -0.025,0.212 -0.286,0.436 -0.497,0.447 -0.186,0.012 -0.484,0.025 -0.62,-0.088 C 11.8,13.72 11.775,13.447 11.811,13.238 12.407,9.725 13.202,6.252 14.354,2.914 14.503,2.492 14.726,2.158 15.234,2.307 15.47,2.37 15.533,2.728 15.458,2.965 14.244,6.414 13.524,9.949 13.09,13.497 z m 21.314,-0.831 -0.05,0.261 -0.073,0.235 -0.113,0.224 -0.136,0.211 c -0.075,0.101 -0.148,0.187 -0.235,0.286 l -0.186,0.16 c -0.1,0.075 -0.199,0.148 -0.312,0.211 -0.124,0.074 -0.235,0.124 -0.359,0.175 -0.124,0.049 -0.249,0.099 -0.384,0.136 -0.137,0.037 -0.274,0.063 -0.41,0.088 -0.149,0.012 -0.298,0.023 -0.447,0.023 -2.246,0.05 -4.516,0.087 -6.786,0.087 -1.725,-0.012 -3.448,-0.037 -5.172,-0.099 -0.659,-0.025 -1.316,-0.049 -1.975,-0.087 l -0.469,-0.05 -0.436,-0.075 -0.385,-0.099 -0.334,-0.125 -0.298,-0.137 -0.248,-0.147 -0.211,-0.175 -0.186,-0.197 -0.148,-0.212 -0.113,-0.224 -0.099,-0.259 -0.062,-0.273 c -0.024,-0.149 -0.039,-0.299 -0.05,-0.447 v -0.334 c 0.026,-0.497 0.087,-0.993 0.162,-1.49 0.074,-0.545 0.173,-1.104 0.272,-1.649 0.148,-0.72 0.323,-1.438 0.497,-2.147 C 15.832,5.918 16.004,5.298 16.191,4.678 16.29,4.367 16.377,4.045 16.501,3.735 16.552,3.624 16.602,3.5 16.662,3.387 16.725,3.276 16.787,3.176 16.861,3.065 16.936,2.979 17.01,2.892 17.086,2.792 17.161,2.718 17.246,2.643 17.333,2.556 17.42,2.494 17.507,2.422 17.606,2.359 17.705,2.297 17.805,2.248 17.904,2.199 18.016,2.149 18.128,2.098 18.241,2.062 18.401,2.011 18.56,1.961 18.722,1.925 18.91,1.9 19.082,1.862 19.269,1.85 19.79,1.812 20.324,1.788 20.855,1.763 21.699,1.726 22.544,1.701 23.387,1.69 c 1.105,-0.014 2.196,-0.014 3.287,0 1.329,0.023 2.656,0.073 3.983,0.136 0.174,0 0.348,0.013 0.534,0.037 0.087,0.012 0.174,0.037 0.261,0.063 0.099,0.036 0.185,0.074 0.271,0.124 0.126,0.062 0.225,0.136 0.337,0.224 0.112,0.086 0.222,0.173 0.321,0.271 0.125,0.137 0.235,0.273 0.336,0.423 0.062,0.087 0.124,0.174 0.174,0.271 0.061,0.125 0.109,0.249 0.172,0.373 0.037,0.124 0.075,0.248 0.099,0.373 0.311,1.787 0.671,3.572 0.944,5.358 0.099,0.67 0.186,1.341 0.261,2.023 0.037,0.334 0.076,0.682 0.076,1.028 l -0.039,0.272 z m 8.388,3.238 c 0,0.323 -0.261,0.596 -0.585,0.596 h -2.306 c -0.336,0 -0.598,-0.272 -0.598,-0.596 v -1.736 c 0,-0.323 0.262,-0.584 0.598,-0.584 h 2.306 c 0.324,0 0.585,0.261 0.585,0.584 v 1.736 z m 12.037,-2.979 -0.562,-0.32 c -0.236,-0.137 -0.039,-0.546 0,-0.819 0.025,-0.136 0.198,-0.212 0.211,-0.347 0.061,-1.154 0.087,-2.32 0.013,-3.475 C 54.478,7.765 54.416,7.518 54.229,7.419 53.745,7.17 53.187,7.022 52.641,7.022 c -0.161,0 -0.285,0.235 -0.296,0.397 -0.087,1.302 -0.124,2.604 0.023,3.896 0.013,0.198 0.273,0.297 0.46,0.371 0.172,0.063 0.495,-0.124 0.557,0.063 0.14,0.351 -0.089,0.791 -0.067,1.17 L 38.537,12.84 37.542,5.805 C 37.221,3.574 38.635,2.617 40.323,2.629 l 12.778,0.05 4.566,10.26 -2.838,-0.014 z m 37.91,10.348 c -0.124,0.087 -0.31,0.05 -0.447,0 -0.223,-0.087 -0.446,-0.211 -0.607,-0.396 -0.358,-0.36 -0.706,-0.757 -0.917,-1.229 -0.049,-0.1 0.099,-0.235 0.199,-0.262 0.271,-0.073 0.569,-0.086 0.83,-0.023 0.223,0.05 0.447,0.173 0.571,0.348 0.249,0.335 0.421,0.719 0.508,1.116 0.025,0.149 -0.013,0.347 -0.137,0.446 z"
   id="path943"
   inkscape:connector-curvature="0" />
	<path
   d="m 39.602,14.315 v 1.439 c 0,0.273 0.212,0.497 0.498,0.497 h 0.881 V 13.832 H 40.1 c -0.287,10e-4 -0.498,0.211 -0.498,0.483 z"
   id="path945"
   inkscape:connector-curvature="0" />
	<path
   d="m 82.777,25.196 c -4.479,0 -8.14,3.659 -8.14,8.139 0,4.491 3.66,8.151 8.14,8.151 4.491,0 8.15,-3.66 8.15,-8.151 0,-4.48 -3.659,-8.139 -8.15,-8.139 z m 0,13.337 c -2.841,0 -5.186,-2.344 -5.186,-5.198 0,-2.853 2.344,-5.186 5.186,-5.186 2.866,0 5.198,2.333 5.198,5.186 0.001,2.854 -2.332,5.198 -5.198,5.198 z"
   id="path947"
   inkscape:connector-curvature="0" />
	<path
   d="m 83.372,35.543 v 2.358 c 1.279,-0.162 2.407,-0.856 3.14,-1.849 l -2.035,-1.18 c -0.298,0.325 -0.671,0.561 -1.105,0.671 z"
   id="path949"
   inkscape:connector-curvature="0" />
	<path
   d="m 85.084,33.323 c 0,0.211 -0.037,0.421 -0.087,0.619 l 2.035,1.179 c 0.225,-0.546 0.348,-1.142 0.348,-1.786 0,-0.67 -0.149,-1.327 -0.411,-1.911 l -2.009,1.192 c 0.073,0.224 0.124,0.457 0.124,0.707 z"
   id="path951"
   inkscape:connector-curvature="0" />
	<path
   d="M 86.424,30.543 C 85.679,29.564 84.537,28.905 83.248,28.77 v 2.32 c 0.459,0.1 0.856,0.322 1.178,0.645 l 1.998,-1.192 z"
   id="path953"
   inkscape:connector-curvature="0" />
	<path
   d="m 82.205,31.103 v -2.32 c -1.277,0.16 -2.394,0.854 -3.126,1.849 l 1.999,1.166 c 0.297,-0.337 0.694,-0.584 1.127,-0.695 z"
   id="path955"
   inkscape:connector-curvature="0" />
	<path
   d="m 80.494,33.323 c 0,-0.212 0.025,-0.422 0.076,-0.608 l -2.01,-1.179 c -0.235,0.547 -0.373,1.166 -0.373,1.799 0,0.658 0.149,1.29 0.397,1.862 l 2.022,-1.142 C 80.532,33.82 80.494,33.571 80.494,33.323 z"
   id="path957"
   inkscape:connector-curvature="0" />
	<path
   d="m 79.105,36.09 c 0.744,1.004 1.886,1.687 3.199,1.823 V 35.58 C 81.859,35.481 81.45,35.258 81.14,34.935 l -2.035,1.155 z"
   id="path959"
   inkscape:connector-curvature="0" />
	<path
   d="m 84.396,33.335 c 0,-0.876 -0.73,-1.605 -1.605,-1.605 -0.896,0 -1.606,0.729 -1.606,1.605 0,0.895 0.711,1.606 1.606,1.606 0.875,0 1.605,-0.712 1.605,-1.606 z"
   id="path961"
   inkscape:connector-curvature="0" />
	<path
   d="m 24.622,25.196 c -4.478,0 -8.139,3.659 -8.139,8.139 0,4.491 3.661,8.151 8.139,8.151 4.49,0 8.15,-3.66 8.15,-8.151 0,-4.48 -3.66,-8.139 -8.15,-8.139 z m 0,13.337 c -2.841,0 -5.185,-2.344 -5.185,-5.198 0,-2.853 2.344,-5.186 5.185,-5.186 2.866,0 5.2,2.333 5.2,5.186 -10e-4,2.854 -2.334,5.198 -5.2,5.198 z"
   id="path963"
   inkscape:connector-curvature="0" />
	<path
   d="m 25.217,35.543 v 2.358 c 1.277,-0.162 2.407,-0.856 3.139,-1.849 l -2.036,-1.18 c -0.298,0.325 -0.669,0.561 -1.103,0.671 z"
   id="path965"
   inkscape:connector-curvature="0" />
	<path
   d="m 26.93,33.323 c 0,0.211 -0.039,0.421 -0.087,0.619 l 2.035,1.179 c 0.223,-0.546 0.347,-1.142 0.347,-1.786 0,-0.67 -0.149,-1.327 -0.41,-1.911 l -2.01,1.192 c 0.074,0.224 0.125,0.457 0.125,0.707 z"
   id="path967"
   inkscape:connector-curvature="0" />
	<path
   d="M 28.271,30.543 C 27.524,29.564 26.383,28.905 25.094,28.77 v 2.32 c 0.459,0.1 0.855,0.322 1.178,0.645 l 1.999,-1.192 z"
   id="path969"
   inkscape:connector-curvature="0" />
	<path
   d="m 24.051,31.103 v -2.32 c -1.278,0.16 -2.394,0.854 -3.127,1.849 l 1.999,1.166 c 0.297,-0.337 0.695,-0.584 1.128,-0.695 z"
   id="path971"
   inkscape:connector-curvature="0" />
	<path
   d="m 22.34,33.323 c 0,-0.212 0.023,-0.422 0.073,-0.608 l -2.009,-1.179 c -0.235,0.547 -0.372,1.166 -0.372,1.799 0,0.658 0.148,1.29 0.398,1.862 l 2.022,-1.142 C 22.376,33.82 22.34,33.571 22.34,33.323 z"
   id="path973"
   inkscape:connector-curvature="0" />
	<path
   d="m 20.95,36.09 c 0.744,1.004 1.887,1.687 3.2,1.823 V 35.58 C 23.705,35.481 23.296,35.258 22.983,34.935 L 20.95,36.09 z"
   id="path975"
   inkscape:connector-curvature="0" />
	<path
   d="m 26.241,33.335 c 0,-0.876 -0.729,-1.605 -1.607,-1.605 -0.894,0 -1.605,0.729 -1.605,1.605 0,0.895 0.712,1.606 1.605,1.606 0.878,0 1.607,-0.712 1.607,-1.606 z"
   id="path977"
   inkscape:connector-curvature="0" />
</g>

</svg>