<?xml version="1.0" encoding="UTF-8" standalone="no"?>
<!-- Created with Inkscape (http://www.inkscape.org/) -->

<svg
   xmlns:dc="http://purl.org/dc/elements/1.1/"
   xmlns:cc="http://creativecommons.org/ns#"
   xmlns:rdf="http://www.w3.org/1999/02/22-rdf-syntax-ns#"
   xmlns:svg="http://www.w3.org/2000/svg"
   xmlns="http://www.w3.org/2000/svg"
   xmlns:sodipodi="http://sodipodi.sourceforge.net/DTD/sodipodi-0.dtd"
   xmlns:inkscape="http://www.inkscape.org/namespaces/inkscape"
   width="1080"
   height="1080"
   viewbox="0 0 1080 1080"
   id="svg2"
   sodipodi:version="0.32"
   inkscape:version="0.47 r22583"
   sodipodi:docname="HockeyCircle.svg"
   inkscape:output_extension="org.inkscape.output.svg.inkscape"
   version="1.1">
  <defs
     id="defs4">
    <inkscape:perspective
       sodipodi:type="inkscape:persp3d"
       inkscape:vp_x="0 : 526.18109 : 1"
       inkscape:vp_y="0 : 1000 : 0"
       inkscape:vp_z="744.09448 : 526.18109 : 1"
       inkscape:persp3d-origin="372.04724 : 350.78739 : 1"
       id="perspective10" />
    <inkscape:perspective
       id="perspective2390"
       inkscape:persp3d-origin="372.04724 : 350.78739 : 1"
       inkscape:vp_z="744.09448 : 526.18109 : 1"
       inkscape:vp_y="0 : 1000 : 0"
       inkscape:vp_x="0 : 526.18109 : 1"
       sodipodi:type="inkscape:persp3d" />
    <inkscape:perspective
       id="perspective2809"
       inkscape:persp3d-origin="372.04724 : 350.78739 : 1"
       inkscape:vp_z="744.09448 : 526.18109 : 1"
       inkscape:vp_y="0 : 1000 : 0"
       inkscape:vp_x="0 : 526.18109 : 1"
       sodipodi:type="inkscape:persp3d" />
    <inkscape:perspective
       id="perspective2919"
       inkscape:persp3d-origin="372.04724 : 350.78739 : 1"
       inkscape:vp_z="744.09448 : 526.18109 : 1"
       inkscape:vp_y="0 : 1000 : 0"
       inkscape:vp_x="0 : 526.18109 : 1"
       sodipodi:type="inkscape:persp3d" />
    <inkscape:perspective
       id="perspective2946"
       inkscape:persp3d-origin="372.04724 : 350.78739 : 1"
       inkscape:vp_z="744.09448 : 526.18109 : 1"
       inkscape:vp_y="0 : 1000 : 0"
       inkscape:vp_x="0 : 526.18109 : 1"
       sodipodi:type="inkscape:persp3d" />
    <inkscape:perspective
       id="perspective3022"
       inkscape:persp3d-origin="372.04724 : 350.78739 : 1"
       inkscape:vp_z="744.09448 : 526.18109 : 1"
       inkscape:vp_y="0 : 1000 : 0"
       inkscape:vp_x="0 : 526.18109 : 1"
       sodipodi:type="inkscape:persp3d" />
    <inkscape:perspective
       id="perspective3118"
       inkscape:persp3d-origin="372.04724 : 350.78739 : 1"
       inkscape:vp_z="744.09448 : 526.18109 : 1"
       inkscape:vp_y="0 : 1000 : 0"
       inkscape:vp_x="0 : 526.18109 : 1"
       sodipodi:type="inkscape:persp3d" />
    <inkscape:perspective
       id="perspective3153"
       inkscape:persp3d-origin="372.04724 : 350.78739 : 1"
       inkscape:vp_z="744.09448 : 526.18109 : 1"
       inkscape:vp_y="0 : 1000 : 0"
       inkscape:vp_x="0 : 526.18109 : 1"
       sodipodi:type="inkscape:persp3d" />
    <inkscape:perspective
       id="perspective3189"
       inkscape:persp3d-origin="372.04724 : 350.78739 : 1"
       inkscape:vp_z="744.09448 : 526.18109 : 1"
       inkscape:vp_y="0 : 1000 : 0"
       inkscape:vp_x="0 : 526.18109 : 1"
       sodipodi:type="inkscape:persp3d" />
    <inkscape:perspective
       id="perspective3303"
       inkscape:persp3d-origin="372.04724 : 350.78739 : 1"
       inkscape:vp_z="744.09448 : 526.18109 : 1"
       inkscape:vp_y="0 : 1000 : 0"
       inkscape:vp_x="0 : 526.18109 : 1"
       sodipodi:type="inkscape:persp3d" />
    <inkscape:perspective
       id="perspective3339"
       inkscape:persp3d-origin="372.04724 : 350.78739 : 1"
       inkscape:vp_z="744.09448 : 526.18109 : 1"
       inkscape:vp_y="0 : 1000 : 0"
       inkscape:vp_x="0 : 526.18109 : 1"
       sodipodi:type="inkscape:persp3d" />
    <inkscape:perspective
       id="perspective3440"
       inkscape:persp3d-origin="372.04724 : 350.78739 : 1"
       inkscape:vp_z="744.09448 : 526.18109 : 1"
       inkscape:vp_y="0 : 1000 : 0"
       inkscape:vp_x="0 : 526.18109 : 1"
       sodipodi:type="inkscape:persp3d" />
    <inkscape:perspective
       id="perspective3545"
       inkscape:persp3d-origin="372.04724 : 350.78739 : 1"
       inkscape:vp_z="744.09448 : 526.18109 : 1"
       inkscape:vp_y="0 : 1000 : 0"
       inkscape:vp_x="0 : 526.18109 : 1"
       sodipodi:type="inkscape:persp3d" />
    <inkscape:perspective
       id="perspective3662"
       inkscape:persp3d-origin="372.04724 : 350.78739 : 1"
       inkscape:vp_z="744.09448 : 526.18109 : 1"
       inkscape:vp_y="0 : 1000 : 0"
       inkscape:vp_x="0 : 526.18109 : 1"
       sodipodi:type="inkscape:persp3d" />
    <inkscape:perspective
       id="perspective3871"
       inkscape:persp3d-origin="372.04724 : 350.78739 : 1"
       inkscape:vp_z="744.09448 : 526.18109 : 1"
       inkscape:vp_y="0 : 1000 : 0"
       inkscape:vp_x="0 : 526.18109 : 1"
       sodipodi:type="inkscape:persp3d" />
    <inkscape:perspective
       id="perspective4007"
       inkscape:persp3d-origin="372.04724 : 350.78739 : 1"
       inkscape:vp_z="744.09448 : 526.18109 : 1"
       inkscape:vp_y="0 : 1000 : 0"
       inkscape:vp_x="0 : 526.18109 : 1"
       sodipodi:type="inkscape:persp3d" />
    <inkscape:perspective
       id="perspective4168"
       inkscape:persp3d-origin="372.04724 : 350.78739 : 1"
       inkscape:vp_z="744.09448 : 526.18109 : 1"
       inkscape:vp_y="0 : 1000 : 0"
       inkscape:vp_x="0 : 526.18109 : 1"
       sodipodi:type="inkscape:persp3d" />
    <inkscape:perspective
       id="perspective5606"
       inkscape:persp3d-origin="0.5 : 0.33333333 : 1"
       inkscape:vp_z="1 : 0.5 : 1"
       inkscape:vp_y="0 : 1000 : 0"
       inkscape:vp_x="0 : 0.5 : 1"
       sodipodi:type="inkscape:persp3d" />
    <inkscape:perspective
       id="perspective5662"
       inkscape:persp3d-origin="0.5 : 0.33333333 : 1"
       inkscape:vp_z="1 : 0.5 : 1"
       inkscape:vp_y="0 : 1000 : 0"
       inkscape:vp_x="0 : 0.5 : 1"
       sodipodi:type="inkscape:persp3d" />
    <inkscape:perspective
       id="perspective5676"
       inkscape:persp3d-origin="0.5 : 0.33333333 : 1"
       inkscape:vp_z="1 : 0.5 : 1"
       inkscape:vp_y="0 : 1000 : 0"
       inkscape:vp_x="0 : 0.5 : 1"
       sodipodi:type="inkscape:persp3d" />
    <inkscape:perspective
       id="perspective5690"
       inkscape:persp3d-origin="0.5 : 0.33333333 : 1"
       inkscape:vp_z="1 : 0.5 : 1"
       inkscape:vp_y="0 : 1000 : 0"
       inkscape:vp_x="0 : 0.5 : 1"
       sodipodi:type="inkscape:persp3d" />
    <inkscape:perspective
       id="perspective5786"
       inkscape:persp3d-origin="0.5 : 0.33333333 : 1"
       inkscape:vp_z="1 : 0.5 : 1"
       inkscape:vp_y="0 : 1000 : 0"
       inkscape:vp_x="0 : 0.5 : 1"
       sodipodi:type="inkscape:persp3d" />
    <inkscape:perspective
       id="perspective5825"
       inkscape:persp3d-origin="0.5 : 0.33333333 : 1"
       inkscape:vp_z="1 : 0.5 : 1"
       inkscape:vp_y="0 : 1000 : 0"
       inkscape:vp_x="0 : 0.5 : 1"
       sodipodi:type="inkscape:persp3d" />
    <inkscape:perspective
       id="perspective5849"
       inkscape:persp3d-origin="0.5 : 0.33333333 : 1"
       inkscape:vp_z="1 : 0.5 : 1"
       inkscape:vp_y="0 : 1000 : 0"
       inkscape:vp_x="0 : 0.5 : 1"
       sodipodi:type="inkscape:persp3d" />
  </defs>
  <sodipodi:namedview
     id="base"
     pagecolor="#ffffff"
     bordercolor="#666666"
     borderopacity="1.0"
     gridtolerance="10000"
     guidetolerance="10"
     objecttolerance="10"
     inkscape:pageopacity="0.0"
     inkscape:pageshadow="2"
     inkscape:zoom="0.1150463"
     inkscape:cx="2264.4978"
     inkscape:cy="-458.50697"
     inkscape:document-units="px"
     inkscape:current-layer="layer1"
     showgrid="false"
     inkscape:window-width="1024"
     inkscape:window-height="742"
     inkscape:window-x="1148"
     inkscape:window-y="-4"
     inkscape:window-maximized="1" />
  <metadata
     id="metadata7">
    <rdf:RDF>
      <cc:Work
         rdf:about="">
        <dc:format>image/svg+xml</dc:format>
        <dc:type
           rdf:resource="http://purl.org/dc/dcmitype/StillImage" />
        <dc:title></dc:title>
      </cc:Work>
    </rdf:RDF>
  </metadata>
  <g
     inkscape:label="Layer 1"
     inkscape:groupmode="layer"
     id="layer1"
     transform="translate(0,27.637817)">
    <path
       id="path5855"
       style="fill:#000000"
       d="m 539.33375,665.60265 c -3.35929,0.1011 -5.84771,4.8896 -8.875,13.9375 -2.49632,7.461 -4.66138,14.8501 -4.78125,16.4063 -0.11985,1.5561 5.90015,12.5063 13.375,24.3437 9.1956,14.5625 13.59375,24.4167 13.59375,30.4687 0,4.9202 2.1338,11.3239 4.75,14.2188 7.14084,7.9018 14.14803,17.1526 17.8125,23.5625 1.80027,3.149 7.88345,12.413 13.53125,20.5937 6.57191,9.5198 11.46777,20.712 13.59375,31.0626 1.82704,8.8949 6.07382,19.6676 9.4375,23.9374 3.36368,4.27 6.125,9.2874 6.125,11.1563 0,1.8689 3.04383,5.3951 6.78125,7.8437 5.13171,3.3624 6.8125,6.8218 6.8125,14.0938 0,5.2962 1.15659,11.8147 2.59375,14.5 2.01353,3.7624 1.0928,6.3134 -4.0625,11.1562 -6.69719,6.2917 -8.12363,12.0037 -5.03125,20.0626 1.31498,3.4266 6.40093,4.3822 25.125,4.625 12.92102,0.1672 35.1103,1.1954 49.3125,2.2812 14.2022,1.0858 27.35004,2.1644 29.21875,2.4062 4.67336,0.6051 4.27873,-10.9642 -0.59375,-17.4062 -4.73769,-6.2638 -5.43585,-17.5 -1.09375,-17.5 6.12733,0 -0.26176,-16.2248 -10.4375,-26.5 -5.65285,-5.7081 -15.17638,-19.7978 -21.15625,-31.3125 -9.17343,-17.664 -11.9658,-20.9451 -17.75,-20.9687 -7.81064,-0.033 -25.96091,-13.8842 -28.4375,-21.6876 -0.96262,-3.0327 -4.63618,-5.5373 -8.8125,-6.0312 -5.85027,-0.6918 -9.77849,-5.3432 -21.3125,-25.3125 -7.77128,-13.4547 -20.86502,-34.8553 -29.125,-47.5625 -8.25994,-12.7073 -21.99849,-34.4957 -30.5,-48.4062 -10.05433,-16.452 -15.77467,-24.0987 -20.09375,-23.9688 z M 417.20875,82.665145 c 16.46048,13.8715 28.28205,15.135 33.34375,29.406205 7.4508,21.0074 10.37485,33.8799 10.71875,47.375 0.2252,8.8399 2.0821,14.6161 6.125,19.0313 3.1919,3.4858 6.63725,9.1085 7.65625,12.4687 2.2716,7.4913 6.09018,8.3469 42.96875,9.7813 16.29249,0.6337 30.90496,2.5112 33,4.25 2.06825,1.7165 5.25657,6.7521 7.09375,11.1875 2.76384,6.6725 4.92859,8.0625 12.46875,8.0625 5.01211,0 17.99756,3.5082 28.875,7.7812 10.87745,4.2731 23.06656,8.5411 27.0625,9.5 3.99594,0.9589 10.90158,4.8247 15.34375,8.5625 4.44221,3.7379 10.14412,6.7813 12.6875,6.7813 2.54335,0 7.87556,2.2857 11.84375,5.0625 3.96819,2.7768 12.71014,6.8341 19.4375,9.0312 8.08139,2.6394 14.24552,6.9479 18.15625,12.7188 5.34435,7.8863 6.183,8.2692 8.65625,3.875 2.50973,-4.459 3.49549,-4.1206 11.75,3.8437 4.95523,4.781 15.91585,11.7157 24.34375,15.4375 8.42787,3.7219 17.76883,10.2019 20.78125,14.4063 5.84225,8.1539 33.78799,19.876 47.375,19.875 4.93193,-4e-4 12.1582,4.2344 21.75,12.7187 32.3647,28.628 37.56108,34.6022 39.28125,45.2188 1.46028,9.0127 0.91022,10.5501 -4.15625,11.875 -3.19937,0.8366 -5.8125,2.5856 -5.8125,3.9062 0,5.4737 -6.39256,1.5762 -20.5,-12.5312 -14.16991,-14.1699 -25.71875,-19.2631 -25.71875,-11.3438 0,1.9862 3.77346,9.2717 8.375,16.2188 8.81183,13.3034 9.52896,21.6439 2,23.0937 -5.96982,1.15 -62.81408,-43.325 -66.9375,-52.375 -2.82416,-6.1983 -3.91683,-6.6768 -9.09375,-3.9062 -6.80746,3.6432 -36.45993,2.0196 -44.5625,-2.4375 -2.90921,-1.6004 -8.67008,-3.6338 -12.78125,-4.5 -6.22494,-1.3117 -7.46875,-2.9843 -7.46875,-10.0625 l 0,-8.5 -6.65625,7.1875 c -3.66604,3.9557 -7.4266,7.1875 -8.34375,7.1875 -4.42226,0 -12.1875,-6.0467 -12.1875,-9.5 0,-6.475 -9.33629,-9.4318 -28.125,-8.875 -14.97437,0.4437 -19.26185,-0.4924 -26.5,-5.8438 -6.00482,-4.4395 -14.51409,-7.064 -27.96875,-8.625 -27.077,-3.1414 -55.3741,-3.0068 -57.40625,0.2813 -3.86406,6.2521 5.40977,22.6786 21.90625,38.7812 11.86301,11.5798 24.29513,28.4577 39.5,53.5938 32.40743,53.5745 35.06225,59.9552 35.09375,84.7187 0.0188,14.7535 1.62035,24.5221 5.46875,33.5 2.98994,6.9756 5.4375,15.1474 5.4375,18.1563 0,3.009 2.38089,8.852 5.3125,12.9687 5.60705,7.8744 16.08347,37.4774 24.5625,69.4688 7.50841,28.3293 17.92859,51.473 23.65625,52.5625 2.70065,0.5137 9.17386,4.8721 14.40625,9.6875 5.23239,4.8154 12.83635,10.1852 16.90625,11.9062 4.68406,1.981 8.01554,5.8975 9.03125,10.6876 0.88252,4.162 2.13379,10.3062 2.8125,13.6562 0.94561,4.6672 3.73705,6.5012 11.9375,7.8125 13.45461,2.1515 18.47627,7.635 19.59375,21.4375 0.79774,9.8535 2.00621,11.3923 12.84375,16.5938 6.86142,3.2927 13.67394,9.0886 16,13.5937 2.22965,4.3183 8.22404,12.5032 13.3125,18.1875 11.40403,12.7393 13.61972,18.3881 19.875,50.4062 3.10222,15.879 6.97807,27.5843 10.3125,31.25 9.33537,10.2636 11.4375,17.2442 11.4375,37.8438 0,11.0614 0.33622,21.5845 1.53125,21.6562 146.79809,8.8104 182.77475,-13.9319 184.74995,-1.125 -10.1282,45.19515 -43.42183,61.87145 -116.9687,62.71875 -54.9792,2.0687 -129.05492,-0.5119 -169.875,-2.7812 -45.89638,-4.4749 -142.92197,-11.9964 -218.8125,-19.99995 -34.38425,-3.6268 -83.30435,-8.4935 -108.71875,-10.8438 -25.4145,-2.3504 -51.97425,-6.162 -59.03125,-8.4688 -17.9175,-5.856 -26.59375,-16.8442 -26.59375,-33.6874 0,-11.3369 1.1602,-14.1167 8.375,-20.1876 4.5996,-3.8702 9.1809,-7.0912 10.1875,-7.1562 1.0065,-0.065 7.3352,-1.1892 14.0625,-2.5 8.9196,-1.7379 26.2148,-0.5657 63.875,4.2812 57.416,7.3904 86.44699,7.5281 87.8125,0.4376 0.50029,-2.5979 -2.26915,-5.8537 -6.8125,-8.0313 -9.45989,-4.534 -9.84695,-10.9612 -0.8125,-13.0937 10.41678,-2.4593 8.13895,-7.7064 -6.8125,-15.7813 -8.78095,-4.7423 -15.4657,-10.8271 -18.875,-17.1875 -2.9021,-5.4144 -9.562,-12.1353 -14.8125,-14.9375 -26.2207,-13.9942 -33.0078,-25.4381 -34.1875,-57.6875 -0.6749,-18.4484 -2.36815,-26.7405 -7.90625,-38.4688 -3.8827,-8.2219 -7.07975,-16.9528 -7.09375,-19.4062 -0.0146,-2.4535 -4.94775,-10.3927 -10.96875,-17.6562 -11.7066,-14.1232 -17.31035,-28.9703 -20.46875,-54.25 -1.6123,-12.9048 -3.57825,-17.2691 -10.78125,-24.0626 -7.1047,-6.7003 -10.93585,-15.1268 -19.90625,-43.625 -6.6004,-20.9689 -15.02355,-41.3671 -20.71875,-50.1874 -8.3837,-12.9841 -9.59375,-17.0209 -9.59375,-31.9376 0,-9.7708 -2.2767,-23.7347 -5.3125,-32.6874 -6.1512,-18.1399 -13.71875,-56.9408 -13.71875,-70.3126 0,-10.6476 -4.45075,-12.1674 -8.03125,-2.75 -1.8931,4.9791 -3.96215,6.1372 -9.09375,5.1563 -4.4869,-0.8577 -11.42995,1.7762 -21.28125,8.0625 -41.1053,26.23 -47.514,29.2337 -62.5625,29.25 -18.0243,0.019 -34.9375,4.4902 -34.9375,9.25 0,7.7209 -11.15005,17.9062 -19.59375,17.9062 -4.5736,0 -12.11995,2.3055 -16.78125,5.125 -4.6614,2.8198 -11.54375,6.0554 -15.28125,7.1563 -3.7374,1.1009 -8.31965,3.2298 -10.21875,4.75 -1.8991,1.5203 -12.3741,2.897 -23.25,3.0625 -21.7711,0.3313 -34.46875,5.9407 -34.46875,15.2188 0,2.9028 -2.4476,6.5872 -5.4375,8.1874 -2.99,1.6006 -5.4375,4.7165 -5.4375,6.9063 0,5.5265 -5.27607,3.1759 -10.65625,-0.7813 -20.4354402,-10.1486 -4.43728,-35.0245 -0.0312,-54.5312 5.44344,-24.4619 19.89235,-37.8742 39.03125,-34.4062 7.1879,1.3024 8.9752,0.3959 12.9375,-6.6876 2.5288,-4.5204 8.0835,-10.4151 12.3125,-13.0625 4.2289,-2.6474 16.15425,-13.9752 26.53125,-25.1875 20.8498,-22.528 23.32015,-24.6737 26.28125,-22.8437 1.1176,0.6907 3.45385,-1.3505 5.15625,-4.5313 2.2612,-4.2251 4.89845,-5.4453 9.84375,-4.5 4.2186,0.8065 7.32405,-0.1058 8.21875,-2.4375 0.7896,-2.0576 2.71355,-3.75 4.28125,-3.75 5.4723,0 21.03125,-13.8899 21.03125,-18.7812 0,-7.0574 9.9365,-18.7372 16.8125,-19.75 3.7268,-0.549 6.81365,-3.8353 8.46875,-9.0313 1.4286,-4.4849 4.9649,-10.7649 7.875,-13.9687 2.9101,-3.2039 7.33795,-9.8755 9.84375,-14.8125 2.7848,-5.4869 9.30455,-11.4386 16.78125,-15.3438 16.5778,-8.6588 32.34205,-24.3236 30.71875,-30.5312 -2.759,-10.5502 15.84335,-32.8499 36.84375,-44.1563 11.4809,-6.1812 12.7126,-10.5321 7.5,-26.4687 -6.0292,-18.4334 -5.4617,-31.7076 2.0625,-47.6875 7.7664,-16.494305 17.74439,-27.519905 29.5625,-32.656305 21.46631,-3.6735 39.72304,-13.3801 56.875,1.1563 l -5e-5,0 z"
       sodipodi:nodetypes="cssssssssssssssssssssssssssssccsssssssssssssssssssssssssssssssscccsssssssssssssssssssssssssssccccsssssscssssssssssssssssssssssssssssssccsssssssssssssssssssccc" />
  </g>
</svg>
