<?xml version="1.0" encoding="UTF-8" standalone="no"?>
<!-- Created with Inkscape (http://www.inkscape.org/) -->
<svg
   xmlns:svg="http://www.w3.org/2000/svg"
   xmlns="http://www.w3.org/2000/svg"
   version="1.0"
   width="50"
   height="30"
   id="svg2">
  <defs
     id="defs4" />
  <g
     id="layer1">
    <path
       d="M 42.941916,12.171908 C 42.877601,12.171908 41.935106,12.04328 41.439303,11.976627 C 40.862814,11.893603 40.148342,11.812918 39.504031,11.673765 C 39.244435,11.619975 38.897139,11.481992 38.718229,11.115986 C 38.593108,10.859899 38.522947,10.589779 38.368593,10.08579 C 38.321819,9.9419599 38.217747,9.5326879 38.189683,9.4309549 C 38.15928,9.3163589 38.094966,9.2941409 38.037668,9.2941409 C 37.9792,9.2941409 37.916055,9.3116809 37.879806,9.4309549 C 37.849403,9.5350269 37.747669,9.8905089 37.695049,10.074097 C 37.537186,10.609658 37.448316,10.901995 37.344244,11.120664 C 37.173519,11.464452 36.899892,11.605943 36.445015,11.687798 C 35.997154,11.763805 35.083893,11.893603 34.171801,12.010538 C 32.389714,12.231545 32.314876,12.226867 30.605288,12.036263 C 30.091944,11.981304 28.737839,11.80824 28.291147,11.746265 C 26.65289,11.552153 23.929477,11.277356 22.274849,10.98385 C 21.37562,10.818972 20.574616,10.62486 20.053087,9.3490999 C 19.708129,8.4884599 19.499985,7.7166899 19.304704,7.0185883 C 19.138656,6.4397608 18.95273,5.6516198 18.890754,5.3873471 C 18.860351,5.2610574 18.806561,5.2166222 18.725876,5.2166222 C 18.652207,5.2166222 18.600756,5.2575494 18.559829,5.3873471 C 18.493176,5.6457731 18.278016,6.4678251 18.121323,7.0150803 C 17.921364,7.6909639 17.734269,8.4954759 17.384633,9.3490999 C 16.933265,10.42607 16.361453,10.758165 15.188597,10.989696 C 13.509412,11.310098 11.46656,11.561508 9.5722157,11.764975 C 8.6402447,11.864369 5.9460658,12.157876 5.8314696,12.171908 C 5.7157041,12.183601 5.678285,12.270133 5.678285,12.322754 C 5.678285,12.378883 5.7157041,12.463076 5.8314696,12.474769 C 5.9460658,12.49114 8.7127447,12.782308 9.5839087,12.875856 C 11.546076,13.086338 13.363244,13.314361 15.105573,13.617223 C 16.791774,13.910729 17.184675,14.772539 17.508584,15.842493 C 17.762333,16.690271 18.102613,18.173005 18.219548,18.751832 C 18.336483,19.260499 18.536442,20.324606 18.559829,20.415815 C 18.586724,20.53275 18.637006,20.579524 18.721199,20.579524 C 18.796037,20.579524 18.854505,20.537427 18.887246,20.415815 C 18.908295,20.314082 19.112931,19.22191 19.215833,18.745985 C 19.343292,18.18119 19.690589,16.630634 19.929136,15.82963 C 20.359456,14.419396 20.776914,13.9271 22.274849,13.663997 C 23.782139,13.395046 26.610794,13.060613 28.302841,12.859485 C 28.726145,12.806864 29.701382,12.72384 30.605288,12.613922 C 32.331247,12.424487 32.479754,12.436181 34.178817,12.649002 C 35.073369,12.755413 35.688446,12.841945 36.409934,12.963557 C 36.985254,13.060613 37.206261,13.224322 37.380494,13.727141 C 37.524324,14.128228 37.633073,14.565564 37.707911,14.864918 C 37.774564,15.12919 37.859927,15.558341 37.882144,15.64955 C 37.909039,15.757131 37.982708,15.777009 38.027144,15.777009 C 38.073917,15.777009 38.161619,15.747776 38.187344,15.64955 C 38.210731,15.534954 38.291416,15.12919 38.354561,14.864918 C 38.418875,14.595967 38.574399,14.05222 38.685487,13.727141 C 38.849196,13.267587 39.107622,13.068798 39.539111,12.979928 C 40.019713,12.875856 40.848782,12.763598 41.449827,12.675897 C 41.911719,12.610414 42.875263,12.487632 42.944254,12.477108 C 43.038971,12.471261 43.093931,12.410455 43.093931,12.322754 C 43.092761,12.240899 43.031955,12.183601 42.941916,12.171908 M 37.674,17.100712 C 38.038837,17.153333 38.66093,17.273776 39.359032,17.431638 C 39.823263,17.539218 39.982294,17.778934 40.087536,18.075949 C 40.193946,18.365947 40.269954,18.696873 40.359994,19.048847 C 40.43951,19.345861 40.494469,19.606626 40.502654,19.654569 C 40.522533,19.745778 40.586848,19.793722 40.652331,19.793722 C 40.721323,19.793722 40.785637,19.751625 40.809024,19.663924 C 40.824225,19.59961 40.878015,19.340015 40.951684,19.044169 C 41.034708,18.726107 41.125917,18.374133 41.226481,18.072441 C 41.321198,17.790628 41.47906,17.556758 41.890671,17.457363 C 42.282403,17.368493 42.924375,17.259743 43.448243,17.182566 C 43.905459,17.113575 44.687753,17.013011 44.80001,17.000148 C 44.912268,16.981438 44.959042,16.912447 44.959042,16.846963 C 44.959042,16.776802 44.923961,16.700795 44.80001,16.687932 C 44.685414,16.669222 43.931184,16.56632 43.442397,16.492651 C 42.84369,16.406119 42.228613,16.307894 41.890671,16.229547 C 41.638092,16.169911 41.386682,15.996847 41.274424,15.754792 C 41.141119,15.477656 41.080313,15.306931 40.986765,15.002901 C 40.925959,14.779555 40.834749,14.456815 40.809024,14.365606 C 40.783298,14.26855 40.70846,14.245163 40.6535,14.245163 C 40.595033,14.245163 40.535396,14.273227 40.506162,14.373791 C 40.473421,14.487218 40.395074,14.776047 40.323744,15.007578 C 40.225519,15.353705 40.154189,15.545478 40.04427,15.754792 C 39.924996,15.988662 39.736731,16.165233 39.360201,16.24358 C 38.6621,16.390917 38.055208,16.519546 37.676339,16.576844 C 36.858964,16.699625 36.469571,16.756924 35.231231,16.58386 C 34.674621,16.502006 33.737973,16.362853 33.003622,16.217854 C 32.597858,16.139508 32.23536,16.023742 32.030724,15.626163 C 31.899757,15.353705 31.813225,15.04032 31.716169,14.718749 C 31.654194,14.516452 31.532582,14.103672 31.492824,13.94581 C 31.46359,13.839399 31.419155,13.797302 31.332623,13.797302 C 31.246091,13.797302 31.203995,13.839399 31.174761,13.94581 C 31.132664,14.080285 31.018068,14.479033 30.952585,14.715241 C 30.859037,15.027457 30.76432,15.358383 30.635691,15.617978 C 30.436902,16.022573 30.107146,16.121967 29.681503,16.210838 C 29.071103,16.338297 28.097036,16.44003 27.22704,16.531239 C 26.842325,16.581521 26.133699,16.664545 25.968821,16.690271 C 25.876443,16.698456 25.822653,16.746399 25.822653,16.838778 C 25.822653,16.932326 25.861241,16.9791 25.967652,16.993132 C 26.119667,17.016519 26.951074,17.107728 27.221194,17.139301 C 27.686594,17.191921 28.802153,17.345106 29.674487,17.467887 C 30.275532,17.554419 30.600611,17.788289 30.774844,18.494575 C 30.869561,18.876952 30.952585,19.156427 31.013391,19.451103 C 31.066012,19.691988 31.151374,20.073196 31.17593,20.149204 C 31.206333,20.261461 31.258954,20.307066 31.330284,20.307066 C 31.399276,20.307066 31.464759,20.274324 31.493993,20.144526 C 31.509195,20.073196 31.614436,19.598441 31.640162,19.468643 C 31.705645,19.190338 31.78633,18.847719 31.882217,18.491067 C 32.058788,17.856111 32.247054,17.64329 33.003622,17.467887 C 33.597651,17.328735 34.689823,17.191921 35.220707,17.114744 C 36.522192,16.928818 36.862472,16.993132 37.674,17.100712 z M 31.054318,21.727824 C 31.393429,21.778106 32.584995,21.953509 33.073783,22.044718 C 33.485394,22.13008 33.686522,22.258709 33.888819,22.747496 C 33.954302,22.907697 34.053697,23.254993 34.107487,23.453783 C 34.179987,23.707531 34.273535,24.091078 34.284059,24.126158 C 34.295752,24.171763 34.340188,24.223214 34.420873,24.223214 C 34.495711,24.223214 34.540146,24.169424 34.556517,24.123819 C 34.579904,24.067691 34.683976,23.675959 34.752968,23.442089 C 34.805588,23.240961 34.906152,22.91939 34.979821,22.747496 C 35.100264,22.464514 35.254618,22.155806 35.745744,22.061089 C 36.236871,21.973387 37.361784,21.829558 37.920733,21.761735 C 38.342868,21.714961 39.259637,21.595688 39.366048,21.586333 C 39.478305,21.568793 39.52391,21.503309 39.52391,21.43081 C 39.52391,21.352463 39.478305,21.289319 39.359032,21.276456 C 39.185968,21.263593 38.342868,21.174722 37.920733,21.12561 C 37.274083,21.047263 36.163202,20.887063 35.79018,20.804039 C 35.399617,20.715168 35.211352,20.60525 35.03595,20.243921 C 34.935386,20.042793 34.865225,19.854528 34.792725,19.592594 C 34.751798,19.431224 34.592767,18.901509 34.570549,18.814977 C 34.547162,18.709736 34.488695,18.679333 34.424381,18.679333 C 34.356558,18.679333 34.301599,18.70272 34.272365,18.819654 C 34.234946,18.931912 34.106318,19.431224 34.053697,19.603118 C 33.989383,19.79606 33.935593,19.989003 33.826844,20.235735 C 33.693538,20.519887 33.502934,20.719846 33.088985,20.804039 C 32.456367,20.931498 31.318591,21.111578 31.05081,21.151335 C 30.025291,21.291657 29.785575,21.320891 29.081627,21.25073 C 28.544896,21.199279 27.33579,21.009844 26.537125,20.887063 C 26.053014,20.813394 25.556041,20.775975 25.28826,20.324606 C 25.130398,20.053317 25.042697,19.789044 24.936286,19.454611 C 24.846247,19.166951 24.703586,18.661792 24.672014,18.539011 C 24.639272,18.438447 24.598345,18.382318 24.514152,18.382318 C 24.424112,18.382318 24.382015,18.438447 24.351612,18.546027 C 24.313024,18.654776 24.161008,19.190338 24.087339,19.446425 C 23.972743,19.819447 23.874518,20.122309 23.729519,20.325775 C 23.455891,20.721015 23.197465,20.772466 22.539122,20.883555 C 21.845698,21.000489 20.983888,21.098715 20.312682,21.166537 C 19.723331,21.23319 19.349139,21.274117 19.13164,21.298673 C 19.026399,21.311536 18.962085,21.346617 18.962085,21.451858 C 18.962085,21.557099 19.026399,21.598027 19.13164,21.610889 C 19.330429,21.637784 19.910426,21.703268 20.31736,21.744195 C 20.996751,21.816695 21.610659,21.873993 22.537953,22.0225 C 23.434843,22.159314 23.593874,22.280926 23.880365,22.959148 C 24.025364,23.294751 24.077985,23.543823 24.136452,23.809265 C 24.200766,24.092247 24.331733,24.665228 24.353951,24.782163 C 24.362136,24.868694 24.411249,24.941194 24.505966,24.941194 C 24.601853,24.941194 24.646288,24.87688 24.663828,24.779824 C 24.686046,24.646518 24.82286,24.041965 24.886004,23.809265 C 24.951488,23.543823 25.013463,23.281888 25.133906,22.959148 C 25.422735,22.228305 25.656605,22.14879 26.531278,22.014315 C 27.202484,21.909073 28.44784,21.723147 29.080458,21.649478 C 29.784406,21.579317 30.065049,21.579317 31.054318,21.727824 z M 25.135076,26.064938 C 36.586506,26.064938 46.1471,21.148997 46.1471,15.089433 C 46.1471,8.9807559 36.483603,4.1150958 25.135076,4.1150958 C 13.689492,4.1150958 3.9113993,8.9819249 3.9113993,15.089433 C 3.91023,21.148997 13.296591,26.064938 25.135076,26.064938 z M 2.2357233,15.089433 C 2.2357233,8.3072109 12.757521,2.8159496 25.123382,2.8159496 C 37.490413,2.8159496 47.820438,8.3072109 47.820438,15.089433 C 47.820438,21.864638 37.491582,27.362915 25.123382,27.362915 C 12.589135,27.361746 2.2357233,21.864638 2.2357233,15.089433 z"
       id="path19" />
  </g>
</svg>
