<?xml version="1.0" encoding="UTF-8" standalone="no"?>
<svg
   xmlns:dc="http://purl.org/dc/elements/1.1/"
   xmlns:cc="http://creativecommons.org/ns#"
   xmlns:rdf="http://www.w3.org/1999/02/22-rdf-syntax-ns#"
   xmlns:svg="http://www.w3.org/2000/svg"
   xmlns="http://www.w3.org/2000/svg"
   xmlns:sodipodi="http://sodipodi.sourceforge.net/DTD/sodipodi-0.dtd"
   xmlns:inkscape="http://www.inkscape.org/namespaces/inkscape"
   viewBox="0 0 301.13092 286.53311"
   height="286.53311"
   width="301.13092"
   xml:space="preserve"
   version="1.1"
   id="svg2"
   inkscape:version="0.48.4 r9939"
   sodipodi:docname="turbo2.svg"><sodipodi:namedview
     pagecolor="#ffffff"
     bordercolor="#666666"
     borderopacity="1"
     objecttolerance="10"
     gridtolerance="10"
     guidetolerance="10"
     inkscape:pageopacity="0"
     inkscape:pageshadow="2"
     inkscape:window-width="1600"
     inkscape:window-height="837"
     id="namedview2999"
     showgrid="false"
     fit-margin-top="0"
     fit-margin-left="0"
     fit-margin-right="0"
     fit-margin-bottom="0"
     inkscape:zoom="0.25758514"
     inkscape:cx="477.30493"
     inkscape:cy="318.55797"
     inkscape:window-x="-8"
     inkscape:window-y="-8"
     inkscape:window-maximized="1"
     inkscape:current-layer="svg2" /><metadata
     id="metadata8"><rdf:RDF><cc:Work
         rdf:about=""><dc:format>image/svg+xml</dc:format><dc:type
           rdf:resource="http://purl.org/dc/dcmitype/StillImage" /></cc:Work></rdf:RDF></metadata><defs
     id="defs6" /><g
     transform="matrix(1.25,0,0,-1.25,-733.94508,852.35013)"
     id="g10"><g
       transform="scale(0.132106,0.132106)"
       id="g12"><path
         id="path14"
         style="fill:#231f20;fill-opacity:1;fill-rule:nonzero;stroke:none"
         d="m 6002.13,4781.85 c 6.49,3.4 12.78,7.01 19.19,10.99 6.51,4.05 13.14,8.47 18.89,12.8 4.63,3.48 8.7,6.91 11.4,9.47 1.57,1.5 2.69,2.71 3.44,3.74 0.73,0.53 1.43,1.58 2.4,3.26 2.25,3.87 5.93,11.07 7.1,20.27 1.88,14.62 -2.54,34.28 -9.87,52.64 -7.89,19.73 -19.16,37.94 -31.43,54.57 -11.15,15.09 -23.14,28.86 -33.63,39.82 -8.07,8.45 -15.26,15.23 -22.37,21.45 -6.34,5.55 -12.61,10.66 -19.02,15.61 -6.3,4.88 -12.72,9.6 -19.21,14.08 -22.06,15.36 -44.4,28.84 -68.6,41.62 -24.25,12.83 -50.37,24.94 -73.63,32.82 -17.57,5.96 -33.5,9.49 -44.67,10.71 -6.33,0.69 -11.14,0.63 -14.8,-0.18 -5.03,-1.04 -10.61,-2.69 -16.22,-4.73 -6.78,-2.48 -13.62,-5.55 -22.55,-10 -12.76,-6.39 -29.79,-15.63 -44.02,-24.68 -11.68,-7.43 -21.47,-14.72 -27.81,-19.52 -3.4,-2.57 -5.81,-4.42 -7.56,-6.16 -1.26,-1.25 -2.18,-2.44 -3.09,-3.93 -1.05,-1.76 -2.07,-3.94 -2.91,-6.38 0.35,-0.57 0.93,-1.1 1.89,-1.61 1.74,-0.92 4.7,-1.76 7.68,-2.33 3.43,-0.67 6.89,-0.98 10.79,-1.18 4.06,-0.21 8.6,-0.27 11.85,-0.22 2.1,0.03 3.67,0.11 4.97,0.24 10.35,0.08 21.43,-1.07 34.52,-4.09 16.86,-3.91 37.07,-10.94 54.66,-18.07 16.21,-6.57 30.19,-13.21 44.45,-20.69 14.1,-7.4 28.46,-15.62 41.44,-24.19 12.08,-7.98 22.96,-16.27 33.14,-25 6.95,-5.78 14.3,-13.18 22.83,-22.72 11.97,-13.37 26.29,-30.93 38.64,-49.99 12.29,-18.98 22.63,-39.45 28.59,-55.75 4.07,-11.16 6.09,-20.37 6.5,-28.61 0.18,-2.2 0.47,-4.57 0.84,-7.2 0.44,-3.13 1,-6.65 1.76,-10.13 0.75,-3.44 1.72,-6.83 2.88,-9.62 0.87,-2.07 1.84,-3.82 4.15,-5.81 1.32,-0.17 2.94,-0.08 5.56,0.6 5.24,1.34 14.49,5.03 20.63,7.7 4.45,1.93 7.27,3.32 10.54,4.95 3.32,1.66 7.12,3.57 10.66,5.45 m -374.04,-547.51 c 1.31,-0.64 2.08,-0.65 2.87,-0.68 0.82,-0.02 1.66,-0.05 3.25,0.15 4.05,0.52 12.97,2.64 20.73,5.01 7.62,2.32 14.12,4.91 19.54,6.74 3.92,1.32 7.28,2.24 10.4,2.87 2.8,0.57 5.4,0.91 8.66,0.51 4.37,-0.53 9.91,-2.38 14.87,-4.37 4.69,-1.87 8.86,-3.89 12.59,-6.06 3.21,-1.88 6.11,-3.88 8.69,-5.65 2.13,-1.48 4.06,-2.81 5.79,-4.08 8.1,-5.99 16.12,-11.03 24.72,-15.58 8.15,-4.3 16.8,-8.16 24.23,-10.3 5.5,-1.6 10.33,-2.24 14.33,-2.53 3.05,-0.22 5.63,-0.25 8.44,0.31 2.93,0.58 6.13,1.77 8.61,2.91 1.95,0.9 3.45,1.77 4.82,2.94 1.35,1.16 2.56,2.62 3.7,4.09 1.16,1.49 2.24,3 3.23,4.63 2.33,4.96 3.21,9.88 2.49,14.76 -0.77,5.22 -3.36,10.41 -7.3,15.51 -4.91,6.37 -11.93,12.63 -19.74,18.31 -9.64,7.01 -20.49,13.13 -36.02,20.08 -21.03,9.43 -50.65,20.39 -70.92,26.78 -13.25,4.18 -22.51,6.4 -31.67,7.17 -6.94,0.59 -13.83,0.34 -18.58,-1.45 -3.71,-1.39 -6.11,-3.74 -8.52,-7.47 -3.52,-5.44 -7.06,-13.85 -10.66,-21.51 -3.53,-7.53 -7.11,-14.34 -9.77,-21.29 -2.36,-6.19 -4,-12.49 -1.47,-18.46 2.55,-6.02 9.36,-11.71 12.69,-13.34 m -786.68,261.33 c 3.56,1.71 6.88,3.67 10.01,5.84 3.06,2.12 5.93,4.44 8.5,7.09 2.47,2.56 4.65,5.42 6.08,8.21 1.2,2.34 1.87,4.63 2.3,6.74 0.35,1.74 0.55,3.36 0.49,4.86 -0.04,1.4 -0.33,2.7 -0.91,4.21 -0.79,2.04 -2.15,4.48 -4.12,6.56 -2.05,2.18 -4.78,3.96 -6.74,5.06 -1.29,0.73 -2.26,1.15 -3.34,1.59 -1.06,0.43 -2.23,0.87 -3.38,1.22 -0.42,0.28 -1.09,0.5 -2.11,0.68 -2.19,0.39 -6.01,0.61 -10.08,0.36 -5.1,-0.32 -10.61,-1.39 -15.69,-2.85 -4.87,-1.4 -9.33,-3.16 -13.72,-5.15 -4.55,-2.05 -9,-4.34 -13.88,-7.19 -5.52,-3.23 -11.57,-7.17 -16.35,-11.59 -3.87,-3.57 -6.92,-7.45 -8.73,-9.78 -0.95,-1.23 -1.56,-2.04 -1.91,-3.13 -0.37,-1.17 -0.44,-2.67 -0.48,-4.15 -0.05,-1.59 -0.08,-3.16 0.01,-4.83 0.18,-0.72 0.54,-1.51 1.16,-2.51 0.98,-1.59 2.61,-3.72 4.39,-5.45 1.9,-1.85 3.97,-3.26 6.68,-4.47 3.53,-1.56 8.14,-2.79 13.2,-3.19 5.8,-0.46 12.19,0.17 17.92,1.24 5.31,0.99 10.06,2.36 14.97,4.08 5.15,1.79 10.48,3.97 15.73,6.55 m 1011.31,-462.81 c 1.66,1.22 3.2,2.59 4.65,4.12 1.5,1.59 2.91,3.34 4.11,5.32 1.29,2.13 2.35,4.51 2.96,7.18 0.68,2.93 0.83,6.21 0.44,9.35 -0.39,3.22 -1.34,6.29 -2.82,9.39 -1.62,3.42 -3.86,6.86 -6.41,10.04 -2.7,3.37 -5.76,6.44 -9.45,9.48 -4.41,3.62 -9.73,7.2 -15.83,10.6 -4.41,2.62 -8.42,4.74 -12,6.49 -2.78,1.36 -5.29,2.5 -7.59,3.16 -1.9,0.54 -3.66,0.76 -5.56,0.66 -2.25,-0.11 -4.7,-0.66 -7.31,-2.48 -4.05,-2.81 -8.5,-8.63 -12.1,-13.61 -3.08,-4.26 -5.53,-7.9 -7.73,-11.19 -1.72,-2.6 -3.29,-4.98 -4.62,-7.08 -0.82,-1.24 -1.63,-2.54 -2.43,-3.92 -0.87,-1.48 -1.72,-3.05 -2.54,-4.71 -0.88,-1.75 -1.71,-3.6 -2.2,-5.66 -0.51,-2.1 -0.65,-4.42 -0.22,-6.32 0.37,-1.66 1.18,-2.99 2.19,-4.22 1.08,-1.3 2.39,-2.49 3.99,-3.69 2,-1.5 4.47,-3.04 7.35,-4.52 3.9,-2.19 7.95,-4.24 11.94,-6.14 4.01,-1.92 7.97,-3.69 12.48,-5.3 4.99,-1.79 10.65,-3.4 16.07,-4.21 4.95,-0.76 9.69,-0.87 13.89,-0.38 3.6,0.42 6.8,1.26 9.89,2.54 3.09,1.28 6.08,2.98 8.85,5.1 m -64.4,-104.81 c 4.36,1.75 7.47,3.73 9.26,5.96 1.22,1.53 1.81,3.18 1.95,4.94 0.15,1.96 -0.28,4.05 -1.27,6.46 -1.5,3.7 -4.29,8.13 -8.22,13.21 -5.43,7.03 -13.04,15.31 -19.74,22.48 -5.97,6.39 -11.23,11.9 -16.62,17.16 -2.17,2.06 -4.73,4.2 -8.14,6.81 -4.7,3.61 -10.98,8.14 -16.61,11.4 -4.77,2.76 -9.06,4.62 -13.25,5.81 -3.62,1.04 -7.17,1.58 -10.78,1.25 -4.16,-0.39 -8.4,-1.94 -13.56,-4.48 -6.75,-3.33 -15.06,-8.35 -21.29,-12.5 -4.68,-3.13 -8.18,-5.76 -11.25,-8.41 l 15.27,-18.63 c 15.24,-17.94 29.01,-31.78 40.75,-41.54 7.8,-6.47 14.7,-11.14 21.54,-13.98 5.41,-2.25 10.78,-3.35 15.52,-3.8 4,-0.38 7.57,-0.3 11.33,0.22 3.96,0.55 8.15,1.6 12.28,2.87 4.3,1.32 8.55,2.88 12.83,4.77 m 129.66,-117.07 c 15.32,0.52 32.13,2.77 50.63,7.18 23,5.47 48.62,14.28 74.6,26.19 28.45,13.04 57.34,29.79 79.31,51.88 21.18,21.3 35.91,47.55 45.21,75.07 9,26.67 12.88,54.52 16.75,80.81 3.37,22.85 6.73,44.52 7.9,62.11 0.96,14.44 0.44,26.12 -1.86,42.11 -3.53,24.37 -11.2,58.74 -26.83,93.76 -18.97,42.5 -49.66,85.93 -81.74,117.78 -28.27,28.07 -57.64,47.15 -92.86,61.75 -39.12,16.21 -85.46,26.9 -134.38,26.87 -46.28,-0.03 -94.86,-9.66 -121.51,-19.28 -14.78,-5.33 -22.81,-10.66 -33.14,-18.53 -11.46,-8.73 -25.73,-20.6 -33.15,-32.76 -2.71,-4.44 -4.52,-8.92 -5.23,-13.1 -0.72,-4.18 -0.36,-8.06 1.24,-11.32 3.63,-7.34 13.64,-11.45 24.85,-16.39 15.59,-6.85 33.52,-15.3 56.74,-23.03 29.49,-12.09 53.79,-23.79 71.81,-32.5 11.77,-5.67 20.86,-10.08 28.9,-17.14 7.69,-6.74 14.42,-15.9 18.74,-24.06 3.43,-6.45 5.33,-12.27 6.01,-18.22 0.66,-5.84 0.12,-11.81 -3.29,-18.12 -4.87,-9.06 -15.63,-18.83 -23.49,-29.2 -6.98,-9.19 -11.69,-18.83 -12.56,-27.22 -0.68,-6.62 1.02,-12.46 5.9,-17.48 7.33,-7.55 21.85,-13.26 33.45,-23.72 12.66,-11.42 21.86,-28.47 24.36,-43.57 2.05,-12.51 -0.48,-23.68 -6.69,-33.47 -6.2,-9.77 -16.08,-18.17 -24.63,-23.4 -6.4,-3.91 -12.06,-6.04 -17.99,-6.76 l -38.06,-22.86 12.96,-26.8 c 1.8,-3.43 3.31,-7.07 4.72,-10.85 1.49,-4 2.87,-8.15 3.5,-12.68 0.65,-4.67 0.49,-9.75 -1.17,-13.9 -1.48,-3.66 -4.13,-6.59 -6.52,-8.62 -1.86,-1.58 -3.55,-2.62 -5.45,-3.67 -2.15,-1.19 -4.55,-2.4 -7.65,-3.57 -4.31,-1.63 -9.98,-3.18 -15.69,-4.48 -6.28,-1.44 -12.6,-2.57 -19.49,-3.47 -4.54,-0.16 -8.82,-1.05 -15.35,-2.46 -8.69,-1.89 -21.37,-4.71 -25.81,-9.47 -2.63,-2.83 -2.36,-6.34 0.08,-9.57 4.17,-5.53 14.7,-10.21 21.64,-14.71 5.14,-3.33 8.3,-6.57 12.29,-9.84 4.7,-3.85 10.55,-7.77 18.72,-11.16 12.16,-5.03 29.47,-8.89 46.27,-13.2 17.15,-4.4 33.79,-9.25 48.96,-12.05 13.38,-2.46 25.61,-3.33 39,-2.88 m -218.89,1.34 c 4.84,3.41 7.65,6.76 6.86,10.35 -1.3,5.9 -12.38,12.43 -21.95,17.65 -9.28,5.05 -17.16,8.87 -27.75,16.84 -15.45,11.65 -36.68,32.13 -50.41,46.98 -10.26,11.1 -16.34,19.05 -23.69,30.46 -9.42,14.59 -20.95,34.84 -29.27,55.88 -8.24,20.81 -13.35,42.38 -17.79,59.12 -3.57,13.45 -6.7,23.78 -9.74,38.7 -4.09,20.1 -8.01,48.54 -9.38,71.76 -1.12,18.99 -0.53,34.49 0.77,48.44 1.01,10.98 2.48,21.01 4.61,29.65 0.83,5.48 2.71,12.08 6.14,21.18 5.86,15.53 16.25,38.33 27.31,58.07 11.07,19.72 22.81,36.39 35.66,53.35 13.18,17.35 27.53,35.02 42.91,51.82 3.63,5.06 7.69,10.28 11.84,14.5 4.21,4.3 8.5,7.57 13.99,13.35 7.05,7.43 16.05,18.99 18.67,25.79 1.22,3.17 1.04,5.32 -0.94,6.85 -3.61,2.8 -13.21,3.61 -25.23,2.8 -12.01,-0.81 -26.43,-3.24 -39.68,-6.88 -23.5,-6.48 -43.3,-16.84 -65.19,-30.43 -25.66,-15.93 -54.19,-36.32 -77.33,-62.14 -24.35,-27.16 -42.73,-60.31 -55.99,-94.1 -13.32,-33.97 -21.47,-68.56 -23.74,-108.23 -2.4,-41.89 1.74,-89.45 9.69,-123.24 5.63,-23.93 13.16,-40.96 22.25,-57.99 9.28,-17.34 20.18,-34.67 34.62,-54.32 19.02,-25.86 44.17,-55.76 78.63,-78.99 36.64,-24.68 83.79,-41.81 114.91,-50.59 17.34,-4.89 29.71,-7.18 38.5,-7.59 4.61,-0.22 8.23,0.08 10.72,0.96 m -929.33,63.41 c 1.02,1.56 2.51,4.45 3.53,7.61 1.35,4.23 1.84,8.93 1.27,15.09 -0.85,9.27 -4.12,21.87 -9.44,32.92 -5.26,10.94 -12.53,20.35 -19.13,27.89 -4.8,5.5 -9.24,10.01 -12.6,12.84 -2.17,1.83 -3.88,2.97 -6.36,3.98 -3.47,1.41 -8.44,2.58 -14.21,3.19 -4,-0.23 -7.57,-1.07 -10.75,-2.49 -2.94,-1.3 -5.54,-3.11 -7.7,-5.45 -2.19,-2.38 -3.92,-5.31 -5.33,-8.14 -1.4,-2.83 -2.49,-5.56 -3.2,-9.16 -0.93,-4.65 -1.23,-10.75 -0.93,-16.17 0.3,-5.32 1.17,-10 2.64,-15.45 1.7,-6.27 4.19,-13.55 7.45,-19.43 2.82,-5.1 6.21,-9.15 9.15,-12.73 2.34,-2.85 4.4,-5.41 6.4,-7.54 2.77,-2.83 5.43,-5.33 8.63,-7.86 3.11,-2.47 6.73,-4.97 9.07,-6.46 1.45,-0.92 2.41,-1.46 3.73,-2.06 1.67,-0.77 3.91,-1.66 6.37,-2.33 2.54,-0.69 5.31,-1.14 7.11,-1.23 1.08,-0.07 1.81,0 2.6,0.07 0.9,0.07 1.87,0.14 3.26,0.49 2.36,0.58 5.95,1.97 8.67,3.59 2.35,1.4 4.06,2.98 5.55,4.39 1.16,1.09 2.18,2.07 2.98,3.03 l 1.24,1.41 m 720.65,-278.99 c 35.2,-3.32 69.67,-2.13 103.64,4.08 19.81,3.63 39.43,8.95 58.61,15.34 20.45,6.81 40.38,14.83 59.89,24.3 21.54,9.97 41.22,20.15 63.61,33.2 22.89,13.33 48.64,29.66 62.97,40.76 7.32,5.67 11.66,9.97 14.37,13.3 1.4,1.71 2.36,3.16 2.76,4.32 0.63,2.55 0.17,4.67 -1.59,6.73 -1.89,2.22 -5.29,4.36 -9.91,5.89 -4.62,1.54 -10.47,2.47 -17.29,2.27 -26.65,-0.81 -68.02,-19.05 -116.42,-27.27 -58.3,-9.9 -126.77,-5.24 -177.89,7.5 -39,9.74 -67.89,24.18 -94.78,42.27 -24.55,16.51 -47.43,36.06 -66.76,55.17 -17.26,17.07 -31.69,33.8 -45.43,52.22 -14.8,19.84 -28.81,41.66 -42.67,67.93 -17.66,33.47 -35.08,74.17 -44.19,122.21 -10.31,54.38 -9.96,118.16 0.88,165.9 8.68,38.2 24.07,66.13 43.57,97.12 22.3,35.45 49.97,74.91 84.61,110.9 38.04,39.5 84.47,74.8 129.64,107.06 44.05,31.46 86.9,60.02 135.54,85.4 46.73,24.39 98.81,45.84 133.9,62.82 21.44,10.38 36.54,19.09 48.49,26.36 16.83,5.23 30.81,11.31 42.43,18.21 9.06,5.38 16.68,11.26 21.88,17.72 4.23,5.26 6.86,10.91 7.58,16.98 0.81,6.85 -0.8,14.23 -4.53,22.82 -5.3,12.23 -14.91,26.9 -24.5,40.92 -9.99,14.61 -19.95,28.51 -30.8,42.17 -11.49,14.47 -23.99,28.69 -39.82,42.99 -16.77,15.14 -37.29,30.37 -52.02,40.06 -9.16,6.03 -16.08,9.91 -22.18,12.48 -3.64,1.86 -7.2,3.58 -10.88,5.31 -3.57,1.7 -7.24,3.39 -10.5,4.73 -2.76,1.14 -5.2,2.03 -7.88,2.59 -2.48,0.51 -5.16,0.75 -7.09,0.11 -1.57,-0.52 -2.64,-1.61 -3.67,-2.85 -1.04,-1.26 -2.05,-2.68 -2.68,-3.89 -0.49,-0.95 -0.75,-1.78 -1.09,-2.68 -0.36,-0.96 -0.8,-2 -1.9,-4.62 -1.43,-2.16 -5.11,-6.32 -11.13,-11.05 -10.87,-8.56 -29.43,-19.02 -44.36,-26.88 -12.12,-6.37 -21.86,-11.04 -30.8,-15.27 -7.02,-3.32 -13.56,-6.37 -19.25,-8.88 -90.27,-48.84 -165.17,-93.86 -206.34,-120.53 -22.88,-14.82 -35.34,-23.98 -58.94,-44.51 -43.87,-38.18 -126.21,-115.7 -182.01,-178.44 -46.56,-52.35 -74.64,-94.41 -97.15,-148.6 -22.56,-54.29 -39.54,-120.76 -50.17,-170.59 -7.72,-36.19 -12.09,-63.6 -13.68,-93.15 -1.47,-27.44 -0.54,-56.72 1.87,-81.05 2.3,-23.18 5.95,-41.87 17.02,-71.55 19.93,-53.44 63.9,-142.52 116.27,-206.46 44.93,-54.85 96.04,-91.2 132.65,-114.27 24.76,-15.61 42.89,-25.14 71.66,-36.21 38.1,-14.65 94.87,-31.99 134.39,-41.39 26.39,-6.28 45.08,-9.03 62.07,-10 m -66.93,-93.06 c 9.41,-1.1 19.79,-1.97 32.12,-2.73 15.64,-0.95 34.41,-1.7 51.9,-1.82 15.78,-0.11 30.51,0.29 42.25,1.03 8.22,0.5 14.98,1.18 20.62,2.04 17.01,2.55 35.86,7.27 57.95,14.69 29.77,10 65.4,24.91 100,42.12 35.68,17.75 70.27,37.96 99.98,57.74 25.15,16.73 46.79,33.16 65.91,50 21.65,19.91 38.07,35.87 48.68,47.55 5.8,6.37 9.85,11.46 12.83,15.67 1.77,2.51 3.16,4.71 3.82,7.79 -0.31,1.43 -0.79,2.69 -1.42,3.83 -0.58,1.05 -1.3,2 -2.19,2.7 -0.88,0.69 -1.92,1.12 -3.11,1.26 -1.5,0.17 -3.23,-0.16 -5.24,-0.85 -3.21,-1.13 -7.1,-3.22 -11.96,-6.66 -7.66,-5.45 -17.71,-14.27 -26.37,-22.06 -8.01,-7.23 -14.82,-13.56 -21.55,-20.31 -11.68,-11.78 -24.07,-23.09 -38.4,-35.19 -15.77,-13.3 -33.89,-27.56 -49.95,-38.41 -13.71,-9.26 -25.91,-16.03 -39.91,-22.74 -15.08,-7.22 -32.24,-14.34 -49.27,-20.25 -17.05,-5.91 -33.95,-10.61 -51.45,-14.44 -15.88,-5.37 -35.08,-9.28 -58.21,-13.37 -32.53,-5.75 -72.82,-11.89 -117.62,-9.53 -52.55,2.77 -111.29,17.22 -158.66,32.12 -41.66,13.1 -74.52,26.55 -114.74,51.17 -52.59,32.19 -117.77,83.51 -164.63,136.97 -40.76,46.52 -67.66,94.67 -89.14,135.84 -16.96,32.52 -30.56,60.68 -42.03,92.42 -13.51,37.37 -24.08,79.7 -24.3,138.21 -0.3,77.4 17.52,183.12 36.32,242.03 11.52,36.09 23.41,54.61 41,82.74 24.06,38.46 58.78,94.87 97.41,142.44 39.55,48.71 83.18,88.15 130.11,125.51 47.68,37.95 98.76,73.75 152.08,108.43 55.65,36.2 113.77,71.18 174.74,104.56 37.96,18.09 65.5,32.86 80.87,42.71 7,4.49 11.48,7.96 14.96,11.8 2.33,2.59 4.22,5.35 4.52,7.38 0.19,1.25 -0.21,2.22 -0.8,3.1 -0.63,0.95 -1.48,1.8 -2.62,2.56 -1.48,0.98 -3.43,1.79 -5.82,2.44 -5.37,2.12 -11.64,2.86 -20.24,0.96 -14.81,-3.28 -36.53,-14.38 -54.07,-23.6 -14.72,-7.74 -26.51,-14.16 -37.26,-20.03 -8.49,-4.64 -16.33,-8.95 -23.1,-12.73 -110.24,-68.26 -208.24,-135.67 -286.74,-192.87 -61.31,-44.68 -110.73,-83.13 -162.79,-134.06 -55.84,-54.63 -114.71,-123.61 -149.51,-190.31 -28.11,-53.89 -40.5,-106.3 -48.5,-150.12 -6.32,-34.63 -9.89,-63.92 -10.46,-98.23 -0.69,-41.71 3.06,-90.86 13.58,-145.15 12.81,-66.07 35.64,-139.74 72.59,-203.03 35.31,-60.51 83.5,-111.53 125.74,-151.54 33.71,-31.93 63.62,-56.85 97.39,-79.8 34.69,-23.57 73.47,-45.05 117.7,-61.52 51.72,-19.25 110.92,-31.65 176.99,-38.46 m -511.5,113.62 c 4.91,4.93 9.03,9.68 12.45,13.93 2.72,3.4 5.01,6.49 6.66,9.89 1.55,3.2 2.53,6.67 2.75,10.14 0.23,3.46 -0.29,6.92 -0.92,10.35 -0.65,3.45 -1.42,6.89 -2.52,10.31 -1.07,3.33 -2.27,6.6 -3.66,9.78 -2.38,5.46 -5.29,10.68 -8.43,15.76 -3.53,5.73 -7.33,11.29 -11.56,16.48 -2.81,3.44 -5.8,6.73 -8.95,9.89 -1.5,1.37 -3.32,3.37 -5.64,6.1 -4.09,4.83 -9.74,11.95 -15.62,20.41 -6.92,9.94 -14.18,21.74 -19,30.05 -3.02,5.22 -5.09,9.07 -6.61,12.34 l -21.79,44.14 -34.47,-15.52 c -5.99,-2.68 -12,-4.76 -18.19,-6.24 -17.07,-4.07 -35.45,-3.51 -52.51,1.61 -16.91,5.08 -32.53,14.65 -44.31,27.43 -4.64,5.05 -8.7,10.58 -12.31,16.71 -5.14,9.09 -9.41,19.15 -12.98,30.98 -4.23,14.02 -7.46,30.52 -9.1,46.31 -1.52,14.64 -1.68,28.65 -0.37,40.58 1.05,9.42 3.01,17.54 5.87,24.69 0.78,1.7 1.69,3.8 2.69,6.12 1.37,3.18 2.93,6.8 4.79,11.64 2.85,7.43 6.43,17.77 6.64,28.91 0.23,12.17 -3.56,25.31 -6.51,34.5 -1.92,5.99 -3.48,10.3 -4.89,14.24 -1.06,2.95 -2.05,5.68 -2.9,7.95 -5.77,17.41 -9.43,36.43 -10.88,57.59 -1.72,25.09 -0.35,53.18 3.75,82.15 4.29,30.25 11.55,61.46 20.27,87.52 6.82,20.39 14.53,37.63 21.26,50.79 4.63,9.06 8.79,16.18 13.1,22.5 3.51,5.15 7.12,9.77 10.68,13.6 3.41,3.91 6.25,7.37 8.51,10.32 1.61,2.12 2.94,3.97 3.97,5.62 0.8,1.27 1.43,2.41 2.01,3.63 0.6,1.24 1.13,2.57 1.48,4.09 0.41,1.82 0.54,3.94 0.03,6.24 -0.62,2.79 -2.19,5.87 -3.72,8.39 -1.28,2.1 -2.55,3.82 -3.64,5.3 -0.84,1.14 -1.58,2.13 -2.26,2.96 -0.42,0.45 -0.91,1.13 -1.57,2.13 -1.23,1.89 -3.08,4.98 -4.57,8.28 -1.67,3.7 -2.91,7.69 -3.67,11.31 -0.65,3.05 -0.96,5.84 -0.95,8.42 0.02,2.11 0.27,4.08 0.56,5.61 0.2,1.07 0.42,1.91 0.7,2.61 0.39,1.96 1.44,4.32 3.15,7.37 3.15,5.57 8.5,13.41 16.2,21.22 11.03,11.18 26.88,22.26 44.91,31.03 19.73,9.6 42.07,16.44 62.45,19.66 17.82,2.83 34.14,2.88 50.18,0.4 2.76,-0.56 5.74,-0.98 9.09,-1.38 3.95,-0.46 8.4,-0.9 12.78,-0.8 4.22,0.09 8.38,0.68 11.76,1.96 2.83,1.09 5.12,2.67 7.04,4.49 1.79,1.68 3.25,3.55 4.54,5.42 1.19,1.73 2.22,3.44 3.05,5.2 0.89,1.82 2.5,4.12 5,7.11 4.88,5.86 13.1,14.38 23.25,23.5 14.16,12.72 32.06,26.59 49.16,41.66 14.61,12.87 28.64,26.61 32.5,33.97 1.31,2.49 1.45,4.25 0.52,5.39 -2.03,2.5 -9.28,1.89 -18.87,-0.2 -13.35,-2.91 -31.25,-8.7 -49.4,-14.38 -19.79,-6.2 -39.89,-12.27 -58.46,-19.6 -17.66,-6.97 -33.96,-15.08 -50.59,-23.4 -16.89,-8.47 -34.12,-17.16 -51.12,-26.4 -7.04,-3.63 -15.54,-8.36 -25,-13.66 -13.26,-7.44 -28.42,-15.97 -48.05,-28.52 -30.67,-19.63 -72.25,-49.06 -105.49,-86.29 -39.27,-43.98 -66.9,-98.85 -91.33,-165.48 -8.67,-22.74 -15.53,-45.83 -20.8,-69.39 -5.24,-23.46 -8.9,-47.4 -10.33,-71.41 -2.13,-35.45 0.6,-71.06 5.33,-106.26 3,-22.26 6.81,-44.36 11.84,-66.38 13.25,-60.55 27.88,-111.39 44.08,-150.07 11.3,-26.98 23.35,-48.04 35.91,-67.27 11.09,-16.98 22.58,-32.53 35.83,-47.48 13.88,-15.67 29.7,-30.68 46.81,-45.45 16.24,-14.02 33.64,-27.84 45.9,-36.83 7.27,-5.34 12.73,-8.98 17.22,-11.56 6.92,-4.84 14.7,-10.05 24.14,-16.31 12.25,-8.14 27.29,-18.05 41.45,-26.54 12.72,-7.63 24.73,-14.12 35.47,-17.93 7.87,-2.79 15.07,-4.14 20.95,-4.07 4.41,0.04 8.08,0.86 11.68,2.32 3.74,1.52 7.4,3.74 11.05,6.45 4.2,3.11 8.39,6.87 12.53,11.37 m -58.91,-94.97 c -41.24,19.95 -79.78,42.97 -115.75,69.71 -59.96,44.58 -112.77,99.47 -157.59,160.1 -41.64,56.32 -76.39,117.57 -99.8,183.53 -30.88,87.01 -42.02,182.19 -31.47,272.42 7.89,67.42 27.89,132.08 59.6,196.65 19.9,33.97 42.08,65.61 67.23,95.02 42.06,49.2 92.45,92.19 145.97,128.19 97.34,65.49 205.05,107.86 327.62,127.77 21.32,3.33 40.18,7.06 55.92,10.78 12.01,2.84 22.19,5.68 31.88,9.3 8.62,3.24 16.84,7.09 23.76,11.24 5.85,3.5 10.78,7.21 15.01,11.21 3.34,2.9 8.19,6.66 14.83,11.47 12.23,8.84 30.48,21.21 52.53,35.61 31.13,20.36 69.83,44.79 107.08,67.53 37.67,23.01 73.85,44.3 111.61,65.82 11.04,5.07 21.87,10.53 32.48,16.39 14.38,7.94 28.35,16.58 41.93,25.94 l 15.63,50.03 c 10.51,15.08 22.4,28.3 34.51,38.35 11.11,9.23 22.4,15.79 36.89,23.08 18.25,9.17 41.58,19.51 64.38,24.71 21.66,4.94 42.84,5.27 62.05,3.33 16.52,-1.67 31.56,-5.01 45.22,-8.68 11.91,-3.21 22.78,-6.66 33.54,-10.35 10.36,-3.55 20.64,-7.31 30.51,-11.28 11.11,-3.47 23.87,-9.15 39.4,-16.89 23.13,-11.53 52.39,-27.64 81.27,-49.29 32.56,-24.39 64.65,-55.82 85.82,-84.66 15.99,-21.79 25.75,-42.11 32.77,-60.66 5.59,-14.79 9.44,-28.47 10.89,-42.46 1.31,-12.87 0.58,-26.01 -0.99,-37.06 -1.25,-8.84 -3.03,-16.34 -5.62,-23.05 -0.9,-3.06 -2.77,-6.54 -5.79,-10.99 -5.18,-7.66 -13.74,-18.21 -24.46,-27.41 -12.87,-11.02 -28.86,-20.07 -44.66,-28.34 -14.11,-7.39 -28.04,-14.16 -38.06,-18.56 -6.06,-2.65 -10.68,-4.45 -14.41,-5.62 -16.73,-7.48 -33.84,-12.59 -51.29,-15.33 -18.43,-2.9 -37.26,-3.17 -56.49,-0.78 l -51.06,-29.53 -70.53,-34.02 c 23.3,-11.53 41.99,-26.57 56.08,-45.11 14.04,-18.5 23.49,-40.48 28.35,-65.96 35.98,-0.03 72.74,-6.21 111.27,-14.68 43.63,-9.57 89.52,-22.07 134.09,-51.79 47.05,-31.39 92.65,-81.97 114.99,-110.59 11.64,-14.91 16.98,-23.85 24.58,-36.04 10.15,-16.27 24.34,-38.31 34.49,-69.49 15.17,-46.63 21.27,-113.69 18.03,-171.11 -2.74,-48.28 -12.08,-89.75 -23.88,-120.17 -8.41,-21.69 -18.09,-37.76 -28.39,-55.57 -10.24,-17.7 -21.09,-37.13 -34.86,-50.84 -12.25,-12.21 -26.82,-19.88 -39.77,-28.16 -11.25,-7.2 -21.29,-14.85 -31.07,-19.96 -7.99,-4.18 -15.82,-6.65 -23.24,-8.15 -5.89,-1.31 -11.79,-2.59 -17.69,-3.84 -5.87,-1.25 -11.75,-2.46 -17.64,-3.65 -0.54,-0.31 -1.2,-0.92 -2.07,-2.12 -2.11,-2.92 -5.54,-9.33 -8.49,-15.02 -3.07,-5.92 -5.62,-11.04 -8.3,-16.89 -0.93,-2.59 -2.76,-6.01 -5.46,-10.41 -5.15,-8.38 -13.49,-20.35 -25.04,-34.22 -17.24,-20.7 -41.63,-45.62 -65.18,-68.4 -23.78,-23.01 -46.71,-43.84 -71.5,-64.65 -5.14,-4.13 -11.42,-8.8 -17.3,-13.28 -7.08,-5.39 -13.57,-10.51 -25.82,-18.32 -26.08,-16.66 -78.25,-45.56 -126.32,-67.61 -44.65,-20.48 -85.75,-35.05 -115.78,-43.46 -17.85,-5.01 -31.78,-7.83 -42.83,-8.51 -9.22,-1.11 -20.89,-1.39 -37.05,-0.82 -27.36,0.97 -67.56,4.35 -105.6,10.14 -36.19,5.51 -70.41,13.21 -93.95,19.9 -13.94,3.96 -24.12,7.57 -31.74,11.25 -1.44,0.68 -3.24,1.45 -5.21,2.31 -2.73,1.21 -5.78,2.57 -10.17,4.2 -6.85,2.54 -16.96,5.72 -26.11,6.29 -8.1,0.5 -15.45,-1.03 -20.85,-2.43 -3.53,-0.91 -6.23,-1.76 -8.65,-2.55 -1.82,-0.6 -3.47,-1.17 -4.86,-1.71 -12.98,-4.49 -28.22,-7.5 -45.73,-9.18 -23.11,-2.22 -50.16,-2.13 -81.13,1.04 -37.99,3.89 -81.88,12.41 -120.13,22.86 -34.27,9.36 -64.02,20.27 -92.43,33.48 m 835.54,666.86 c -16.34,0 -31.19,-6.69 -41.96,-17.45 -10.77,-10.78 -17.45,-25.63 -17.45,-41.97 0,-16.33 6.68,-31.19 17.45,-41.96 10.77,-10.77 25.62,-17.45 41.96,-17.45 16.34,0 31.2,6.68 41.96,17.45 10.77,10.77 17.46,25.63 17.46,41.96 0,16.34 -6.69,31.19 -17.46,41.97 -10.76,10.76 -25.62,17.45 -41.96,17.45"
         inkscape:connector-curvature="0" /></g></g></svg>