<?xml version="1.0" encoding="UTF-8"?>
<svg width="1200pt" height="1200pt" version="1.1" viewBox="0 0 1200 1200" xmlns="http://www.w3.org/2000/svg">
 <path d="m667.2 264v-40.801c0-90-134.4-90-134.4 0v40.801c0 90 134.4 90 134.4 0zm396 96h-926.4c-51.602 0-51.602 78 0 78h297.6c13.199 0 25.199 4.8008 33.602 14.398l14.398 13.199c9.6016 9.6016 14.398 21.602 14.398 33.602v146.4l-315.6 314.4c-45.602 45.602 22.801 115.2 68.398 68.398l279.6-278.4c36-36 92.398-46.801 139.2-25.199l148.8 69.602v200.4c0 64.801 97.199 64.801 97.199 0v-226.8c-1.1992-24-16.801-45.602-38.398-54l-171.6-80.398v-134.4c0-13.199 4.8008-25.199 14.398-33.602l14.398-14.398c9.6016-8.3984 21.602-14.398 33.602-14.398h296.4c51.605 0 51.605-76.801 0.003907-76.801z"/>
</svg>
